<?xml version="1.0" encoding="UTF-8" standalone="no"?>
<!-- Generator: flash2svg, http://dissentgraphics.com/tools/flash2svg -->

<svg
   xmlns:dc="http://purl.org/dc/elements/1.1/"
   xmlns:cc="http://creativecommons.org/ns#"
   xmlns:rdf="http://www.w3.org/1999/02/22-rdf-syntax-ns#"
   xmlns:svg="http://www.w3.org/2000/svg"
   xmlns="http://www.w3.org/2000/svg"
   xmlns:sodipodi="http://sodipodi.sourceforge.net/DTD/sodipodi-0.dtd"
   xmlns:inkscape="http://www.inkscape.org/namespaces/inkscape"
   id="Wunderlist"
   version="1.1"
   style="image-rendering:optimizeSpeed"
   x="0px"
   y="0px"
   width="72"
   height="72"
   viewBox="0 0 72 72"
   enable-background="new 0 0 1024 1024"
   sodipodi:docname="bookmarks.svg"
   inkscape:version="0.92.3 (2405546, 2018-03-11)">
  <metadata
     id="metadata38">
    <rdf:RDF>
      <cc:Work
         rdf:about="">
        <dc:format>image/svg+xml</dc:format>
        <dc:type
           rdf:resource="http://purl.org/dc/dcmitype/StillImage" />
        <dc:title />
      </cc:Work>
    </rdf:RDF>
  </metadata>
  <sodipodi:namedview
     pagecolor="#ffffff"
     bordercolor="#666666"
     borderopacity="1"
     objecttolerance="10"
     gridtolerance="10"
     guidetolerance="10"
     inkscape:pageopacity="0"
     inkscape:pageshadow="2"
     inkscape:window-width="1506"
     inkscape:window-height="878"
     id="namedview36"
     showgrid="false"
     inkscape:pagecheckerboard="true"
     inkscape:showpageshadow="false"
     showguides="true"
     inkscape:guide-bbox="true"
     inkscape:zoom="8"
     inkscape:cx="13.758164"
     inkscape:cy="28.8133"
     inkscape:window-x="224"
     inkscape:window-y="105"
     inkscape:window-maximized="0"
     inkscape:current-layer="Wunderlist"
     inkscape:lockguides="false"
     inkscape:snap-global="true" />
  <defs
     transform="matrix(1 0 0 1 0 0) "
     id="defs2" />
  <g
     transform="matrix(1.0000029,0,0,1.000001,-374.95112,-522.93441)"
     id="22-22-bookmarks">
    <rect
       style="opacity:0.01000001;fill:#000000;fill-opacity:0.00392157;stroke:none"
       id="rect3028"
       width="22"
       height="22"
       x="-7.1556997e-08"
       y="2.0000052"
       transform="matrix(0.99999706,0,0,0.99999899,420.71433,524.79072)" />
    <path
       inkscape:connector-curvature="0"
       style="fill:currentColor;fill-opacity:1;stroke:none"
       d="m 426.71431,529.79072 v 1 13.99999 1 l 4.99999,-2 4.99998,2 v -1 -13.99999 -1 h -9.99997 m 1,1 h 7.99997 v 13.5996 l -3.99998,-1.59961 -3.99999,1.59961 v -13.5996"
       id="rect4298"
       class="ColorScheme-Text" />
  </g>
  <g
     id="bookmarks">
    <rect
       y="36.782124"
       x="2.0260699"
       height="32"
       width="32"
       id="rect896"
       style="opacity:1;fill:none;fill-opacity:1;fill-rule:nonzero;stroke:none;stroke-width:3.90169597;stroke-linecap:round;stroke-miterlimit:4;stroke-dasharray:none;stroke-dashoffset:0;stroke-opacity:0.82352941" />
    <path
       inkscape:connector-curvature="0"
       id="path945"
       d="M 10.96875,37.611328 V 66.457964 L 8.6940541,67.99713 h -0.10345 c -0.0698,-0.20394 -0.119363,-0.415409 -0.119363,-0.639361 V 39.915181 c 0,-1.227225 1.099582,-2.2157 2.4975049,-2.303853 z"
       style="opacity:1;fill:#f79d41;fill-opacity:1;fill-rule:nonzero;stroke:none;stroke-width:3.28798318;stroke-linecap:round;stroke-miterlimit:4;stroke-dasharray:none;stroke-dashoffset:0;stroke-opacity:0.82352941" />
    <path
       id="path830"
       d="m 11.208984,37.589844 c -0.08231,0 -0.15986,0.01526 -0.240234,0.02148 v 28.796875 l 6.814453,-4.630859 6.814453,4.630859 V 37.611328 c -0.08102,-0.0063 -0.159212,-0.02148 -0.242187,-0.02148 z"
       style="opacity:1;fill:#f6511d;fill-opacity:1;fill-rule:nonzero;stroke:none;stroke-width:3.27266002;stroke-linecap:round;stroke-miterlimit:4;stroke-dasharray:none;stroke-dashoffset:0;stroke-opacity:0.82352941"
       inkscape:connector-curvature="0" />
    <path
       style="opacity:1;fill:#f79c41;fill-opacity:1;fill-rule:nonzero;stroke:none;stroke-width:3.28798318;stroke-linecap:round;stroke-miterlimit:4;stroke-dasharray:none;stroke-dashoffset:0;stroke-opacity:0.82352941"
       d="m 24.597656,37.561567 v 28.846636 l 2.274696,1.539166 h 0.10345 c 0.0698,-0.20394 0.119363,-0.415409 0.119363,-0.639361 V 39.865421 c 0,-1.227226 -1.099582,-2.215701 -2.497505,-2.303854 z"
       id="path947"
       inkscape:connector-curvature="0" />
    <path
       inkscape:connector-curvature="0"
       id="path886"
       d="M 11.164574,37.589222 C 9.6905325,37.599892 8.5078432,38.61697 8.4967039,39.884144 H 27.108172 c -0.01117,-1.267174 -1.193817,-2.284253 -2.667871,-2.294922 z"
       style="opacity:1;fill:#000000;fill-opacity:0.367713;fill-rule:nonzero;stroke:none;stroke-width:3.2829051;stroke-linecap:round;stroke-miterlimit:4;stroke-dasharray:none;stroke-dashoffset:0;stroke-opacity:0.82352941" />
    <path
       inkscape:transform-center-y="-0.30453794"
       inkscape:transform-center-x="0.017576059"
       d="m 22.051,57.375 -4.225991,-2.818527 -4.179261,2.887365 1.374675,-4.89013 -4.03751,-3.082468 5.075588,-0.20374 1.683943,-4.792435 1.76221,4.764212 5.078244,0.120581 -3.986482,3.148184 z"
       inkscape:randomized="0"
       inkscape:rounded="0"
       inkscape:flatsided="false"
       sodipodi:arg2="1.5626066"
       sodipodi:arg1="0.93428811"
       sodipodi:r2="2.9315715"
       sodipodi:r1="7.1501746"
       sodipodi:cy="51.625"
       sodipodi:cx="17.801001"
       sodipodi:sides="5"
       id="path883"
       style="opacity:1;fill:#ffffff;fill-opacity:1;fill-rule:nonzero;stroke:none;stroke-width:3.57399988;stroke-linecap:round;stroke-miterlimit:4;stroke-dasharray:none;stroke-dashoffset:0;stroke-opacity:0.82352941"
       sodipodi:type="star" />
  </g>
</svg>
