<?xml version="1.0" encoding="UTF-8" standalone="no"?>
<!-- Created with Inkscape (http://www.inkscape.org/) -->

<svg
   xmlns:dc="http://purl.org/dc/elements/1.1/"
   xmlns:cc="http://creativecommons.org/ns#"
   xmlns:rdf="http://www.w3.org/1999/02/22-rdf-syntax-ns#"
   xmlns:svg="http://www.w3.org/2000/svg"
   xmlns="http://www.w3.org/2000/svg"
   xmlns:sodipodi="http://sodipodi.sourceforge.net/DTD/sodipodi-0.dtd"
   xmlns:inkscape="http://www.inkscape.org/namespaces/inkscape"
   id="svg2"
   width="30"
   version="1.0"
   height="122.38"
   sodipodi:docname="actionbutton.svg"
   inkscape:version="0.92.2 5c3e80d, 2017-08-06">
  <defs
     id="defs36" />
  <sodipodi:namedview
     pagecolor="#ffffff"
     bordercolor="#666666"
     borderopacity="1"
     objecttolerance="10"
     gridtolerance="10"
     guidetolerance="10"
     inkscape:pageopacity="0"
     inkscape:pageshadow="2"
     inkscape:window-width="1123"
     inkscape:window-height="817"
     id="namedview34"
     showgrid="false"
     inkscape:zoom="8.7576354"
     inkscape:cx="18.004482"
     inkscape:cy="91.546323"
     inkscape:window-x="33"
     inkscape:window-y="157"
     inkscape:window-maximized="0"
     inkscape:current-layer="svg2" />
  <metadata
     id="metadata7">
    <rdf:RDF>
      <cc:Work
         rdf:about="">
        <dc:format>image/svg+xml</dc:format>
        <dc:type
           rdf:resource="http://purl.org/dc/dcmitype/StillImage" />
        <dc:title />
      </cc:Work>
    </rdf:RDF>
  </metadata>
  <g
     transform="translate(-17,-15.625)"
     id="22-22-normal">
    <circle
       style="fill:#f4f4f4"
       cy="95"
       r="8"
       cx="32"
       id="circle4339" />
    <rect
       style="fill-opacity:0"
       width="22"
       y="84"
       x="21"
       height="22"
       id="rect4341" />
    <path
       style="fill-opacity:0.39216003"
       inkscape:connector-curvature="0"
       transform="translate(21,84)"
       d="m 10.256,19.963 a 9,9 0 0 0 0.10742,0.01367 9,9 0 0 0 0.637,0.023 8,8 0 0 1 -0.744,-0.037 z"
       id="path4355" />
    <path
       style="fill-opacity:0.21961"
       inkscape:connector-curvature="0"
       transform="translate(21,84)"
       d="M 2.0215,11.424 A 9,9 0 0 0 2,12 a 9,9 0 0 0 9,9 9,9 0 0 0 9,-9 9,9 0 0 0 -0.02148,-0.42383 9,9 0 0 1 -0.002,0.06055 9,9 0 0 1 -0.10742,0.89258 9,9 0 0 1 -0.19727,0.87891 9,9 0 0 1 -0.2832,0.85352 9,9 0 0 1 -0.36719,0.82031 9,9 0 0 1 -0.44922,0.78125 9,9 0 0 1 -0.52148,0.73047 9,9 0 0 1 -0.59375,0.67578 9,9 0 0 1 -0.6582,0.61328 9,9 0 0 1 -0.7168,0.54492 9,9 0 0 1 -0.76758,0.4707 9,9 0 0 1 -0.81055,0.39062 9,9 0 0 1 -0.84375,0.30859 9,9 0 0 1 -0.87305,0.22266 9,9 0 0 1 -0.88867,0.13477 9,9 0 0 1 -0.21094,0.0098 8,8 0 0 1 -0.688,0.035 9,9 0 0 1 -0.637,-0.023 9,9 0 0 1 -0.107,-0.014 8,8 0 0 1 -0.174,-0.02 9,9 0 0 1 -0.6113,-0.074 9,9 0 0 1 -0.8789,-0.197 9,9 0 0 1 -0.8535,-0.283 9,9 0 0 1 -0.8203,-0.368 9,9 0 0 1 -0.7813,-0.449 9,9 0 0 1 -0.7305,-0.521 9,9 0 0 1 -0.6757,-0.594 9,9 0 0 1 -0.6133,-0.658 9,9 0 0 1 -0.5449,-0.717 9,9 0 0 1 -0.4707,-0.768 9,9 0 0 1 -0.3907,-0.81 9,9 0 0 1 -0.3086,-0.844 9,9 0 0 1 -0.2226,-0.873 9,9 0 0 1 -0.1348,-0.889 9,9 0 0 1 -0.0234,-0.474 z"
       id="path4353" />
    <path
       style="fill:#a4a4a4"
       inkscape:connector-curvature="0"
       d="m 32,86 a 9,9 0 0 0 -9,9 9,9 0 0 0 9,9 9,9 0 0 0 9,-9 9,9 0 0 0 -9,-9 z m 0,1 a 8,8 0 0 1 8,8 8,8 0 0 1 -8,8 8,8 0 0 1 -8,-8 8,8 0 0 1 8,-8 z"
       id="path4350" />
    <path
       style="fill-opacity:0.05882401"
       inkscape:connector-curvature="0"
       d="M 23.021,96.424 A 9,9 0 0 0 23,97 a 9,9 0 0 0 9,9 9,9 0 0 0 9,-9 9,9 0 0 0 -0.02148,-0.42383 9,9 0 0 1 -0.002,0.06055 9,9 0 0 1 -0.10742,0.89258 9,9 0 0 1 -0.19727,0.87891 9,9 0 0 1 -0.2832,0.85352 9,9 0 0 1 -0.36719,0.82031 9,9 0 0 1 -0.44922,0.78125 9,9 0 0 1 -0.52148,0.73047 9,9 0 0 1 -0.59375,0.67578 9,9 0 0 1 -0.6582,0.61328 9,9 0 0 1 -0.7168,0.54492 9,9 0 0 1 -0.76758,0.47071 9,9 0 0 1 -0.81055,0.39062 9,9 0 0 1 -0.84375,0.3086 9,9 0 0 1 -0.87305,0.22265 9,9 0 0 1 -0.88867,0.13477 9,9 0 0 1 -0.21094,0.01 8,8 0 0 1 -0.688,0.04 9,9 0 0 1 -0.63672,-0.0234 9,9 0 0 1 -0.10742,-0.0137 8,8 0 0 1 -0.17383,-0.0195 9,9 0 0 1 -0.61133,-0.0742 9,9 0 0 1 -0.87891,-0.19726 9,9 0 0 1 -0.85352,-0.28321 9,9 0 0 1 -0.82031,-0.36719 9,9 0 0 1 -0.78125,-0.44921 9,9 0 0 1 -0.73047,-0.52149 9,9 0 0 1 -0.67578,-0.59375 9,9 0 0 1 -0.61328,-0.6582 9,9 0 0 1 -0.54492,-0.7168 9,9 0 0 1 -0.4707,-0.76758 9,9 0 0 1 -0.39062,-0.81054 9,9 0 0 1 -0.30859,-0.84375 9,9 0 0 1 -0.22266,-0.87305 9,9 0 0 1 -0.13476,-0.88867 9,9 0 0 1 -0.02344,-0.47461 z"
       id="path4361" />
  </g>
  <g
     transform="translate(-17,16.375)"
     id="22-22-pressed">
    <circle
       style="fill:#f4f4f4"
       cy="95"
       r="8"
       cx="32"
       id="circle4244" />
    <rect
       style="fill-opacity:0"
       width="22"
       y="84"
       x="21"
       height="22"
       id="rect4223" />
    <path
       style="fill:#b8b8b8"
       inkscape:connector-curvature="0"
       transform="translate(21,84)"
       d="M 18.979,11.424 A 8,8 0 0 0 19,11 8,8 0 0 0 18.98,10.434 8,8 0 0 0 18.883,9.6406 8,8 0 0 0 18.709,8.8594 8,8 0 0 0 18.457,8.1016 8,8 0 0 0 18.129,7.3711 8,8 0 0 0 17.732,6.6777 8,8 0 0 0 17.268,6.0273 8,8 0 0 0 16.738,5.4258 8,8 0 0 0 16.154,4.8809 8,8 0 0 0 15.518,4.3965 8,8 0 0 0 14.836,3.9785 8,8 0 0 0 14.115,3.6309 8,8 0 0 0 13.363,3.3574 8,8 0 0 0 12.59,3.1602 8,8 0 0 0 11.918,3.0566 9,9 0 0 0 11.744,3.0371 8,8 0 0 0 11,3 9,9 0 0 0 10.312,3.0352 8,8 0 0 0 9.6406,3.1172 8,8 0 0 0 8.8594,3.291 8,8 0 0 0 8.1016,3.543 8,8 0 0 0 7.3711,3.8711 8,8 0 0 0 6.6777,4.2676 8,8 0 0 0 6.0273,4.7324 8,8 0 0 0 5.4258,5.2617 8,8 0 0 0 4.8809,5.8457 8,8 0 0 0 4.3965,6.4824 8,8 0 0 0 3.9785,7.1641 8,8 0 0 0 3.6309,7.8848 8,8 0 0 0 3.3574,8.6367 8,8 0 0 0 3.1602,9.4102 8,8 0 0 0 3.0391,10.201 8,8 0 0 0 3,11 a 8,8 0 0 0 0.019531,0.56641 8,8 0 0 0 0.00195,0.0098 8,8 0 0 1 7.9785,-7.576 8,8 0 0 1 7.9785,7.4238 z"
       id="path4391" />
    <path
       style="fill:#a4a4a4"
       inkscape:connector-curvature="0"
       transform="translate(21,84)"
       d="m 10.256,19.963 a 9,9 0 0 0 0.10742,0.01367 9,9 0 0 0 0.637,0.023 8,8 0 0 1 -0.744,-0.037 z"
       id="path4387" />
    <path
       style="fill:#a4a4a4"
       inkscape:connector-curvature="0"
       d="m 32,86 a 9,9 0 0 0 -9,9 9,9 0 0 0 9,9 9,9 0 0 0 9,-9 9,9 0 0 0 -9,-9 z m 0,1 a 8,8 0 0 1 8,8 8,8 0 0 1 -8,8 8,8 0 0 1 -8,-8 8,8 0 0 1 8,-8 z"
       id="path4379" />
    <path
       style="fill:#e8e8e8"
       inkscape:connector-curvature="0"
       d="M 39.979,96.424 A 8,8 0 0 0 40,96 8,8 0 0 0 39.98,95.433 8,8 0 0 0 39.883,94.64 8,8 0 0 0 39.709,93.859 8,8 0 0 0 39.457,93.101 8,8 0 0 0 39.129,92.371 8,8 0 0 0 38.732,91.678 8,8 0 0 0 38.268,91.027 8,8 0 0 0 37.738,90.426 8,8 0 0 0 37.154,89.881 8,8 0 0 0 36.518,89.396 8,8 0 0 0 35.836,88.978 8,8 0 0 0 35.115,88.631 8,8 0 0 0 34.363,88.357 8,8 0 0 0 33.59,88.16 8,8 0 0 0 32.918,88.056 9,9 0 0 0 32.744,88.037 8,8 0 0 0 32,88 a 9,9 0 0 0 -0.6875,0.03516 8,8 0 0 0 -0.67188,0.08203 8,8 0 0 0 -0.78125,0.17383 8,8 0 0 0 -0.75781,0.25195 8,8 0 0 0 -0.73047,0.32812 8,8 0 0 0 -0.69336,0.39648 8,8 0 0 0 -0.65039,0.46484 8,8 0 0 0 -0.60156,0.5293 8,8 0 0 0 -0.54492,0.58398 8,8 0 0 0 -0.48438,0.63672 8,8 0 0 0 -0.41797,0.68164 8,8 0 0 0 -0.34766,0.7207 8,8 0 0 0 -0.27344,0.75195 8,8 0 0 0 -0.19727,0.77344 8,8 0 0 0 -0.121,0.791 8,8 0 0 0 -0.039,0.799 8,8 0 0 0 0.01953,0.56641 8,8 0 0 0 0.002,0.0098 8,8 0 0 1 7.978,-7.576 8,8 0 0 1 7.9785,7.4238 z"
       id="path4393" />
  </g>
  <rect
     style="opacity:1;fill:#444444;fill-opacity:1;fill-rule:nonzero;stroke:none;stroke-width:6.04039383;stroke-linecap:round;stroke-miterlimit:4;stroke-dasharray:none;stroke-dashoffset:0;stroke-opacity:1"
     id="normal"
     width="23.959606"
     height="23.959606"
     x="2.5024765"
     y="38.36813" />
  <rect
     y="3.8839357"
     x="3.4159651"
     height="23.959606"
     width="23.959606"
     id="pressed"
     style="opacity:1;fill:#8c8c8c;fill-opacity:1;fill-rule:nonzero;stroke:none;stroke-width:6.04039383;stroke-linecap:round;stroke-miterlimit:4;stroke-dasharray:none;stroke-dashoffset:0;stroke-opacity:1" />
</svg>
