<?xml version="1.0" encoding="UTF-8" standalone="no"?>
<!-- Created with Inkscape (http://www.inkscape.org/) -->

<svg
   xmlns:osb="http://www.openswatchbook.org/uri/2009/osb"
   xmlns:dc="http://purl.org/dc/elements/1.1/"
   xmlns:cc="http://creativecommons.org/ns#"
   xmlns:rdf="http://www.w3.org/1999/02/22-rdf-syntax-ns#"
   xmlns:svg="http://www.w3.org/2000/svg"
   xmlns="http://www.w3.org/2000/svg"
   xmlns:xlink="http://www.w3.org/1999/xlink"
   xmlns:sodipodi="http://sodipodi.sourceforge.net/DTD/sodipodi-0.dtd"
   xmlns:inkscape="http://www.inkscape.org/namespaces/inkscape"
   id="svg2"
   sodipodi:version="0.32"
   inkscape:version="0.92.3 (2405546, 2018-03-11)"
   width="1012.879"
   height="605.51886"
   version="1.0"
   sodipodi:docname="clock.svg"
   inkscape:output_extension="org.inkscape.output.svgz.inkscape"
   inkscape:export-filename="/home/pinheiro/Desktop/clokbaseshadow.png"
   inkscape:export-xdpi="126"
   inkscape:export-ydpi="126"
   viewBox="0 0 1012.879 605.51886">
  <sodipodi:namedview
     inkscape:window-height="1104"
     inkscape:window-width="1587"
     inkscape:pageshadow="2"
     inkscape:pageopacity="0"
     guidetolerance="10.0"
     gridtolerance="10.0"
     objecttolerance="10.0"
     borderopacity="1.0"
     bordercolor="#666666"
     pagecolor="#6f9467"
     id="base"
     showguides="true"
     inkscape:guide-bbox="true"
     showgrid="false"
     width="250px"
     height="250px"
     inkscape:zoom="1.1887597"
     inkscape:cx="416.74194"
     inkscape:cy="260.49744"
     inkscape:window-x="0"
     inkscape:window-y="33"
     inkscape:current-layer="svg2"
     inkscape:snap-global="false"
     guidecolor="#00ac5e"
     guideopacity="0.49803922"
     inkscape:document-units="px"
     inkscape:pagecheckerboard="true"
     inkscape:window-maximized="0"
     fit-margin-top="5"
     fit-margin-left="5"
     fit-margin-right="5"
     fit-margin-bottom="5"
     inkscape:showpageshadow="false">
    <inkscape:grid
       type="xygrid"
       id="grid3914"
       originx="323.97674"
       originy="58.714814" />
    <sodipodi:guide
       position="369.23906,247.59688"
       orientation="0,1"
       id="guide1165"
       inkscape:locked="false" />
  </sodipodi:namedview>
  <metadata
     id="metadata7">
    <rdf:RDF>
      <cc:Work
         rdf:about="">
        <dc:format>image/svg+xml</dc:format>
        <dc:type
           rdf:resource="http://purl.org/dc/dcmitype/StillImage" />
        <dc:title></dc:title>
      </cc:Work>
      <cc:Work
         rdf:about="">
        <dc:format>image/svg+xml</dc:format>
        <dc:type
           rdf:resource="http://purl.org/dc/dcmitype/StillImage" />
      </cc:Work>
      <cc:Work
         rdf:about="">
        <dc:format>image/svg+xml</dc:format>
        <dc:type
           rdf:resource="http://purl.org/dc/dcmitype/StillImage" />
      </cc:Work>
    </rdf:RDF>
  </metadata>
  <defs
     id="defs5">
    <linearGradient
       id="linearGradient2935"
       osb:paint="solid">
      <stop
         style="stop-color:#333333;stop-opacity:1;"
         offset="0"
         id="stop2933" />
    </linearGradient>
    <linearGradient
       id="linearGradient1086"
       osb:paint="solid">
      <stop
         style="stop-color:#ffffff;stop-opacity:1;"
         offset="0"
         id="stop1084" />
    </linearGradient>
    <linearGradient
       id="linearGradient1113"
       osb:paint="solid">
      <stop
         style="stop-color:#000000;stop-opacity:1;"
         offset="0"
         id="stop1111" />
    </linearGradient>
    <linearGradient
       id="linearGradient1107"
       osb:paint="solid">
      <stop
         style="stop-color:#000000;stop-opacity:1;"
         offset="0"
         id="stop1105" />
    </linearGradient>
    <linearGradient
       id="text"
       osb:paint="solid">
      <stop
         style="stop-color:#55554f;stop-opacity:1;"
         offset="0"
         id="stop1099" />
    </linearGradient>
    <linearGradient
       id="linearGradient1067"
       osb:paint="solid">
      <stop
         style="stop-color:#000000;stop-opacity:1;"
         offset="0"
         id="stop1065" />
    </linearGradient>
    <linearGradient
       id="linearGradient1043"
       osb:paint="solid">
      <stop
         style="stop-color:#000000;stop-opacity:1;"
         offset="0"
         id="stop1041" />
    </linearGradient>
    <linearGradient
       id="linearGradient1019"
       osb:paint="solid">
      <stop
         style="stop-color:#000000;stop-opacity:1;"
         offset="0"
         id="stop1017" />
    </linearGradient>
    <linearGradient
       id="linearGradient1013"
       osb:paint="solid">
      <stop
         style="stop-color:#000000;stop-opacity:1;"
         offset="0"
         id="stop1011" />
    </linearGradient>
    <linearGradient
       id="linearGradient1184"
       osb:paint="solid">
      <stop
         style="stop-color:#000000;stop-opacity:1;"
         offset="0"
         id="stop1182" />
    </linearGradient>
    <linearGradient
       id="linearGradient1170"
       osb:paint="solid">
      <stop
         style="stop-color:#000000;stop-opacity:1;"
         offset="0"
         id="stop1168" />
    </linearGradient>
    <linearGradient
       id="linearGradient1146"
       osb:paint="solid">
      <stop
         style="stop-color:#000000;stop-opacity:1;"
         offset="0"
         id="stop1144" />
    </linearGradient>
    <linearGradient
       id="ticks"
       osb:paint="solid">
      <stop
         style="stop-color:#808080;stop-opacity:1;"
         offset="0"
         id="stop1118" />
    </linearGradient>
    <linearGradient
       id="linearGradient4633"
       osb:paint="solid">
      <stop
         style="stop-color:#f8f8f8;stop-opacity:1;"
         offset="0"
         id="stop4631" />
    </linearGradient>
    <linearGradient
       id="linearGradient4595"
       osb:paint="solid">
      <stop
         style="stop-color:#f8f8f8;stop-opacity:1;"
         offset="0"
         id="stop4593" />
    </linearGradient>
    <linearGradient
       id="linearGradient4545"
       osb:paint="solid">
      <stop
         style="stop-color:#000000;stop-opacity:1;"
         offset="0"
         id="stop4543" />
    </linearGradient>
    <linearGradient
       id="numblur-8"
       osb:paint="solid">
      <stop
         style="stop-color:#000000;stop-opacity:1;"
         offset="0"
         id="stop4533" />
    </linearGradient>
    <linearGradient
       id="linearGradient4230"
       osb:paint="solid">
      <stop
         style="stop-color:#00007e;stop-opacity:1;"
         offset="0"
         id="stop4232" />
    </linearGradient>
    <linearGradient
       id="linearGradient5973"
       osb:paint="solid">
      <stop
         style="stop-color:#000000;stop-opacity:0.55508476;"
         offset="0"
         id="stop5975" />
    </linearGradient>
    <linearGradient
       id="linearGradient5940"
       osb:paint="solid">
      <stop
         style="stop-color:#b03131;stop-opacity:1;"
         offset="0"
         id="stop5942" />
    </linearGradient>
    <linearGradient
       id="linearGradient5916"
       osb:paint="solid">
      <stop
         style="stop-color:#bd2094;stop-opacity:1;"
         offset="0"
         id="stop5918" />
    </linearGradient>
    <linearGradient
       id="linearGradient5851"
       osb:paint="solid">
      <stop
         style="stop-color:#4c2094;stop-opacity:1;"
         offset="0"
         id="stop5853" />
    </linearGradient>
    <linearGradient
       id="linearGradient5765"
       osb:paint="solid">
      <stop
         style="stop-color:#4cd894;stop-opacity:1;"
         offset="0"
         id="stop5767" />
    </linearGradient>
    <linearGradient
       id="linearGradient5730"
       osb:paint="solid">
      <stop
         style="stop-color:#4cd894;stop-opacity:1;"
         offset="0"
         id="stop5732" />
    </linearGradient>
    <linearGradient
       id="linearGradient5707"
       osb:paint="solid">
      <stop
         style="stop-color:#ddd894;stop-opacity:1;"
         offset="0"
         id="stop5709" />
    </linearGradient>
    <linearGradient
       id="linearGradient5638"
       osb:paint="solid">
      <stop
         style="stop-color:#ddd894;stop-opacity:1;"
         offset="0"
         id="stop5640" />
    </linearGradient>
    <linearGradient
       id="linearGradient5632"
       osb:paint="solid">
      <stop
         style="stop-color:#c8c8c8;stop-opacity:1;"
         offset="0"
         id="stop5634" />
    </linearGradient>
    <linearGradient
       id="linearGradient5626"
       osb:paint="solid">
      <stop
         style="stop-color:#c8c8c8;stop-opacity:1;"
         offset="0"
         id="stop5628" />
    </linearGradient>
    <linearGradient
       id="linearGradient5620"
       osb:paint="solid">
      <stop
         style="stop-color:#c8c8c8;stop-opacity:1;"
         offset="0"
         id="stop5622" />
    </linearGradient>
    <linearGradient
       id="linearGradient5614"
       osb:paint="solid">
      <stop
         style="stop-color:#f0f4f8;stop-opacity:1;"
         offset="0"
         id="stop5616" />
    </linearGradient>
    <linearGradient
       inkscape:collect="always"
       xlink:href="#text"
       id="linearGradient1540"
       gradientUnits="userSpaceOnUse"
       gradientTransform="translate(-1.5276139,0.82592378)"
       x1="214.42465"
       y1="79.726349"
       x2="223.21111"
       y2="79.726349" />
  </defs>
  <text
     xml:space="preserve"
     style="font-style:normal;font-variant:normal;font-weight:normal;font-stretch:normal;font-size:26.66666603px;line-height:25px;font-family:'PT Sans';-inkscape-font-specification:'PT Sans';text-align:start;letter-spacing:0px;word-spacing:0px;writing-mode:lr-tb;text-anchor:start;fill:#ffffff;fill-opacity:1;stroke:none;stroke-width:1px;stroke-linecap:butt;stroke-linejoin:miter;stroke-opacity:1"
     x="157.71565"
     y="340.85751"
     id="text7467"><tspan
       sodipodi:role="line"
       id="tspan7465"
       x="157.71565"
       y="361.00305" /></text>
  <text
     xml:space="preserve"
     style="font-style:normal;font-variant:normal;font-weight:normal;font-stretch:normal;font-size:26.66666603px;line-height:25px;font-family:'DejaVu Sans';-inkscape-font-specification:'DejaVu Sans';text-align:start;letter-spacing:0px;word-spacing:0px;writing-mode:lr-tb;text-anchor:start;fill:#000000;fill-opacity:1;stroke:none;stroke-width:1px;stroke-linecap:butt;stroke-linejoin:miter;stroke-opacity:1"
     x="138.91728"
     y="345.87039"
     id="text7471"><tspan
       sodipodi:role="line"
       id="tspan7469"
       x="138.91728"
       y="365.29749" /></text>
  <g
     id="MinuteHand"
     transform="translate(342.16335,0.8412129)">
    <rect
       y="357.49377"
       x="191.24164"
       height="186.35165"
       width="19.122427"
       id="rect1118"
       style="opacity:1;fill:none;fill-opacity:1;fill-rule:nonzero;stroke:none;stroke-width:9.29905224;stroke-linecap:round;stroke-miterlimit:4;stroke-dasharray:none;stroke-dashoffset:0;stroke-opacity:1" />
    <path
       inkscape:connector-curvature="0"
       id="path1170"
       d="m 200.80285,358.62288 v 182.1226"
       style="fill:none;fill-rule:evenodd;stroke:#f2f2f2;stroke-width:3.5;stroke-linecap:butt;stroke-linejoin:miter;stroke-miterlimit:4;stroke-dasharray:none;stroke-opacity:1" />
  </g>
  <g
     transform="translate(369.92337,0.42060645)"
     id="HourHand">
    <rect
       style="opacity:1;fill:none;fill-opacity:1;fill-rule:nonzero;stroke:none;stroke-width:9.29905224;stroke-linecap:round;stroke-miterlimit:4;stroke-dasharray:none;stroke-dashoffset:0;stroke-opacity:1"
       id="rect1178"
       width="19.122427"
       height="186.35165"
       x="191.24164"
       y="357.49377" />
    <path
       style="fill:none;fill-rule:evenodd;stroke:#f2f2f2;stroke-width:3.5;stroke-linecap:butt;stroke-linejoin:miter;stroke-miterlimit:4;stroke-dasharray:none;stroke-opacity:1"
       d="M 200.80285,358.62288 V 497.84362"
       id="path1180"
       inkscape:connector-curvature="0" />
  </g>
  <g
     id="HandCenterScrew"
     transform="translate(-22.867895,388.90023)">
    <rect
       y="-29.520782"
       x="629.24176"
       height="36"
       width="36"
       id="rect1112"
       style="opacity:1;fill:none;fill-opacity:1;fill-rule:nonzero;stroke:none;stroke-width:4.85931206;stroke-linecap:round;stroke-miterlimit:4;stroke-dasharray:none;stroke-dashoffset:0;stroke-opacity:1" />
    <circle
       r="7.1336985"
       cy="-11.520782"
       cx="647.24176"
       id="circle1118"
       style="opacity:1;fill:#eaeaea;fill-opacity:0.3183857;fill-rule:nonzero;stroke:none;stroke-width:8.56509399;stroke-linecap:round;stroke-miterlimit:4;stroke-dasharray:none;stroke-dashoffset:0;stroke-opacity:1" />
  </g>
  <g
     transform="translate(311.73802,1.6824258)"
     id="SecondHand">
    <rect
       style="opacity:1;fill:none;fill-opacity:1;fill-rule:nonzero;stroke:none;stroke-width:9.29905224;stroke-linecap:round;stroke-miterlimit:4;stroke-dasharray:none;stroke-dashoffset:0;stroke-opacity:1"
       id="rect1184"
       width="19.122427"
       height="186.35165"
       x="191.24164"
       y="357.49377" />
    <path
       style="fill:none;fill-rule:evenodd;stroke:#f6511d;stroke-width:3.5;stroke-linecap:butt;stroke-linejoin:miter;stroke-miterlimit:4;stroke-dasharray:none;stroke-opacity:1"
       d="m 200.80285,358.62288 v 182.1226"
       id="path1186"
       inkscape:connector-curvature="0" />
  </g>
  <g
     id="g935"
     transform="translate(-522.25841,-151.08615)">
    <circle
       r="176.65472"
       cy="357.98981"
       cx="204.65695"
       id="path899"
       style="opacity:1;fill:#eaeaea;fill-opacity:0.3183857;fill-rule:evenodd;stroke:#f6511d;stroke-width:3.50000024;stroke-linecap:round;stroke-linejoin:round;stroke-miterlimit:4;stroke-dasharray:none;stroke-dashoffset:0;stroke-opacity:1;paint-order:normal" />
    <g
       id="g925">
      <path
         style="fill:none;fill-rule:evenodd;stroke:#000000;stroke-width:4.9000001;stroke-linecap:butt;stroke-linejoin:miter;stroke-miterlimit:4;stroke-dasharray:none;stroke-opacity:1"
         d="M 204.65695,180.70634 V 535.69819"
         id="path903"
         inkscape:connector-curvature="0" />
      <path
         inkscape:connector-curvature="0"
         id="path905"
         d="M 293.40491,204.48628 115.90899,511.91825"
         style="fill:none;fill-rule:evenodd;stroke:#000000;stroke-width:4.9000001;stroke-linecap:butt;stroke-linejoin:miter;stroke-miterlimit:4;stroke-dasharray:none;stroke-opacity:1" />
      <path
         style="fill:none;fill-rule:evenodd;stroke:#000000;stroke-width:4.9000001;stroke-linecap:butt;stroke-linejoin:miter;stroke-miterlimit:4;stroke-dasharray:none;stroke-opacity:1"
         d="M 358.37293,269.4543 50.94097,446.95023"
         id="path907"
         inkscape:connector-curvature="0" />
      <path
         inkscape:connector-curvature="0"
         id="path909"
         d="m 382.15288,358.20226 -354.991856,10e-6"
         style="fill:none;fill-rule:evenodd;stroke:#000000;stroke-width:4.9000001;stroke-linecap:butt;stroke-linejoin:miter;stroke-miterlimit:4;stroke-dasharray:none;stroke-opacity:1" />
      <path
         style="fill:none;fill-rule:evenodd;stroke:#000000;stroke-width:4.9000001;stroke-linecap:butt;stroke-linejoin:miter;stroke-miterlimit:4;stroke-dasharray:none;stroke-opacity:1"
         d="M 358.37294,446.95022 50.940967,269.45431"
         id="path911"
         inkscape:connector-curvature="0" />
      <path
         inkscape:connector-curvature="0"
         id="path913"
         d="M 293.40493,511.91824 115.90898,204.48629"
         style="fill:none;fill-rule:evenodd;stroke:#000000;stroke-width:4.9000001;stroke-linecap:butt;stroke-linejoin:miter;stroke-miterlimit:4;stroke-dasharray:none;stroke-opacity:1" />
    </g>
  </g>
  <g
     id="ClockFace">
    <ellipse
       id="ellipse1239"
       ry="218.3905"
       rx="218.39052"
       cy="357.98984"
       cx="204.65697"
       style="opacity:1;fill:#151515;fill-opacity:0.8699552;fill-rule:evenodd;stroke:none;stroke-width:3.30000019;stroke-linecap:round;stroke-linejoin:round;stroke-miterlimit:4;stroke-dasharray:none;stroke-dashoffset:0;stroke-opacity:0.8699552;paint-order:normal" />
    <g
       id="text917"
       style="font-style:normal;font-variant:normal;font-weight:200;font-stretch:normal;font-size:18.66666603px;line-height:25px;font-family:'Sinkin Sans';-inkscape-font-specification:'Sinkin Sans, Ultra-Light';font-variant-ligatures:normal;font-variant-caps:normal;font-variant-numeric:normal;text-align:start;letter-spacing:0px;word-spacing:0px;writing-mode:lr-tb;text-anchor:start;fill:#e0e0e0;fill-opacity:1;stroke:none;stroke-width:1px;stroke-linecap:butt;stroke-linejoin:miter;stroke-opacity:1"
       aria-label="12">
      <path
         id="path1986"
         style="font-style:normal;font-variant:normal;font-weight:normal;font-stretch:normal;font-size:53.33333206px;font-family:'Aprikas Light Demo';-inkscape-font-specification:'Aprikas Light Demo';fill:#e0e0e0;fill-opacity:1"
         d="m 184.85575,191.34668 9.97396,-11.35417 v 39.16667 H 193.137 v -34.71354 l -8.28125,9.42708 z"
         inkscape:connector-curvature="0" />
      <path
         id="path1988"
         style="font-style:normal;font-variant:normal;font-weight:normal;font-stretch:normal;font-size:53.33333206px;font-family:'Aprikas Light Demo';-inkscape-font-specification:'Aprikas Light Demo';fill:#e0e0e0;fill-opacity:1"
         d="m 209.49117,186.26856 q 0.80729,-2.94271 3.74999,-4.11459 1.27605,-0.52083 2.83855,-0.52083 1.53645,0 2.8125,0.52083 4.01041,1.58854 4.01041,6.19792 0,3.56771 -1.74479,6.35417 l -15.39062,24.45312 h 18.41145 v -1.69271 H 208.762 l 13.4375,-21.45833 q 2.39583,-3.85417 2.39583,-7.65625 0,-2.94271 -1.45833,-4.97396 -1.32813,-1.84896 -3.61979,-2.76042 -1.64063,-0.65104 -3.4375,-0.65104 -1.82292,0 -3.4375,0.65104 -2.29167,0.91146 -3.59375,2.76042 -0.91146,1.27604 -1.25,2.89063 z"
         inkscape:connector-curvature="0" />
    </g>
    <g
       id="text1030"
       style="font-style:normal;font-variant:normal;font-weight:200;font-stretch:normal;font-size:18.66666603px;line-height:25px;font-family:'Sinkin Sans';-inkscape-font-specification:'Sinkin Sans, Ultra-Light';font-variant-ligatures:normal;font-variant-caps:normal;font-variant-numeric:normal;text-align:start;letter-spacing:0px;word-spacing:0px;writing-mode:lr-tb;text-anchor:start;fill:#e0e0e0;fill-opacity:1;stroke:none;stroke-width:1px;stroke-linecap:butt;stroke-linejoin:miter;stroke-opacity:1"
       aria-label="1">
      <path
         id="path2025"
         style="font-style:normal;font-variant:normal;font-weight:normal;font-stretch:normal;font-size:53.33333206px;font-family:'Aprikas Light Demo';-inkscape-font-specification:'Aprikas Light Demo';fill:#e0e0e0;fill-opacity:1"
         d="m 278.44069,211.74609 9.97396,-11.35416 v 39.16666 h -1.69271 v -34.71354 l -8.28125,9.42709 z"
         inkscape:connector-curvature="0" />
    </g>
    <g
       id="text1034"
       style="font-style:normal;font-variant:normal;font-weight:200;font-stretch:normal;font-size:18.66666603px;line-height:25px;font-family:'Sinkin Sans';-inkscape-font-specification:'Sinkin Sans, Ultra-Light';font-variant-ligatures:normal;font-variant-caps:normal;font-variant-numeric:normal;text-align:start;letter-spacing:0px;word-spacing:0px;writing-mode:lr-tb;text-anchor:start;fill:#e0e0e0;fill-opacity:1;stroke:none;stroke-width:1px;stroke-linecap:butt;stroke-linejoin:miter;stroke-opacity:1"
       aria-label="2">
      <path
         id="path2022"
         style="font-style:normal;font-variant:normal;font-weight:normal;font-stretch:normal;font-size:53.33333206px;font-family:'Aprikas Light Demo';-inkscape-font-specification:'Aprikas Light Demo';fill:#e0e0e0;fill-opacity:1"
         d="m 340.16443,262.28433 q 0.80729,-2.94271 3.75,-4.11458 1.27604,-0.52083 2.83854,-0.52083 1.53646,0 2.8125,0.52083 4.01042,1.58854 4.01042,6.19792 0,3.5677 -1.7448,6.35416 l -15.39062,24.45313 h 18.41146 v -1.69271 h -15.41667 l 13.4375,-21.45833 q 2.39583,-3.85417 2.39583,-7.65625 0,-2.94271 -1.45833,-4.97396 -1.32812,-1.84896 -3.61979,-2.76042 -1.64062,-0.65104 -3.4375,-0.65104 -1.82292,0 -3.4375,0.65104 -2.29167,0.91146 -3.59375,2.76042 -0.91146,1.27604 -1.25,2.89062 z"
         inkscape:connector-curvature="0" />
    </g>
    <g
       id="text1038"
       style="font-style:normal;font-variant:normal;font-weight:200;font-stretch:normal;font-size:18.66666603px;line-height:25px;font-family:'Sinkin Sans';-inkscape-font-specification:'Sinkin Sans, Ultra-Light';font-variant-ligatures:normal;font-variant-caps:normal;font-variant-numeric:normal;text-align:start;letter-spacing:0px;word-spacing:0px;writing-mode:lr-tb;text-anchor:start;fill:#e0e0e0;fill-opacity:1;stroke:none;stroke-width:1px;stroke-linecap:butt;stroke-linejoin:miter;stroke-opacity:1"
       aria-label="3">
      <path
         id="path2019"
         style="font-style:normal;font-variant:normal;font-weight:normal;font-stretch:normal;font-size:53.33333206px;font-family:'Aprikas Light Demo';-inkscape-font-specification:'Aprikas Light Demo';fill:#e0e0e0;fill-opacity:1"
         d="m 373.3749,357.20081 q 4.94791,-0.0521 6.69271,-4.73959 0.59895,-1.61458 0.59895,-3.38541 0,-1.79688 -0.59895,-3.38542 -1.77084,-4.76563 -6.77084,-4.76563 -2.21354,0 -3.95833,0.96355 -1.69271,0.91145 -2.52604,2.47395 l -1.48438,-0.78125 q 1.04167,-2.03125 3.20313,-3.17708 2.13541,-1.14583 4.76562,-1.14583 3.09896,0 5.33854,1.69271 2.03125,1.53645 3.02084,4.16666 0.67708,1.875 0.67708,3.95834 0,2.08333 -0.67708,3.95833 -1.32813,3.59375 -4.47917,5.05208 3.25521,1.61459 4.63542,5.72917 0.70312,2.10937 0.70312,4.42708 0,2.31771 -0.70312,4.45313 -0.98959,2.94271 -3.07292,4.6875 -2.26562,1.90104 -5.44271,1.90104 -2.55208,0 -4.63541,-1.09375 -2.10938,-1.06771 -3.20313,-2.99479 l 1.45833,-0.83334 q 0.83334,1.48438 2.5,2.34375 1.7448,0.91146 3.88021,0.91146 5.10417,0 6.90104,-5.46875 0.625,-1.82291 0.625,-3.90625 0,-2.05729 -0.625,-3.90625 -1.79687,-5.39062 -6.82291,-5.44271 h -1.84896 v -1.6927 z"
         inkscape:connector-curvature="0" />
    </g>
    <g
       id="text1042"
       style="font-style:normal;font-variant:normal;font-weight:200;font-stretch:normal;font-size:18.66666603px;line-height:25px;font-family:'Sinkin Sans';-inkscape-font-specification:'Sinkin Sans, Ultra-Light';font-variant-ligatures:normal;font-variant-caps:normal;font-variant-numeric:normal;text-align:start;letter-spacing:0px;word-spacing:0px;writing-mode:lr-tb;text-anchor:start;fill:#e0e0e0;fill-opacity:1;stroke:none;stroke-width:1px;stroke-linecap:butt;stroke-linejoin:miter;stroke-opacity:1"
       aria-label="4">
      <path
         id="path2016"
         style="font-style:normal;font-variant:normal;font-weight:normal;font-stretch:normal;font-size:53.33333206px;font-family:'Aprikas Light Demo';-inkscape-font-specification:'Aprikas Light Demo';fill:#e0e0e0;fill-opacity:1"
         d="m 350.56207,458.15768 v -7.78645 h -17.05729 l 18.72396,-31.38021 v 29.6875 h 5.78125 v 1.69271 h -5.78125 v 7.78645 z m 0,-9.47916 v -23.75 l -14.16666,23.75 z"
         inkscape:connector-curvature="0" />
    </g>
    <g
       id="text1046"
       style="font-style:normal;font-variant:normal;font-weight:200;font-stretch:normal;font-size:18.66666603px;line-height:25px;font-family:'Sinkin Sans';-inkscape-font-specification:'Sinkin Sans, Ultra-Light';font-variant-ligatures:normal;font-variant-caps:normal;font-variant-numeric:normal;text-align:start;letter-spacing:0px;word-spacing:0px;writing-mode:lr-tb;text-anchor:start;fill:#e0e0e0;fill-opacity:1;stroke:none;stroke-width:1px;stroke-linecap:butt;stroke-linejoin:miter;stroke-opacity:1"
       aria-label="5">
      <path
         id="path2013"
         style="font-style:normal;font-variant:normal;font-weight:normal;font-stretch:normal;font-size:53.33333206px;font-family:'Aprikas Light Demo';-inkscape-font-specification:'Aprikas Light Demo';fill:#e0e0e0;fill-opacity:1"
         d="m 279.20476,508.76371 q 0.41667,2.16146 2.29167,3.48959 2.00521,1.43229 4.84375,1.43229 2.65625,0 4.60937,-1.82292 1.7448,-1.66667 2.63021,-4.50521 0.70313,-2.23958 0.70313,-4.71354 0,-2.5 -0.65104,-4.73958 -0.85938,-2.91667 -2.65625,-4.63542 -1.97917,-1.90104 -4.71355,-1.92708 -2.47395,-0.026 -4.42708,1.01562 -1.82292,0.98959 -2.57812,2.68229 l -1.64063,-0.36458 v -18.51562 h 16.38021 v 1.69271 h -14.66146 v 14.24479 q 0.75521,-0.70313 1.71875,-1.22396 2.31771,-1.25 5.23438,-1.19792 3.35937,0.026 5.7552,2.26563 2.16146,2.03125 3.20313,5.49479 0.72917,2.47396 0.70312,5.20833 0,2.73438 -0.7552,5.20833 -1.04167,3.35938 -3.20313,5.33855 -2.36979,2.16145 -5.65104,2.16145 -3.35938,0 -5.80729,-1.71875 -2.44792,-1.71875 -2.96875,-4.58333 z"
         inkscape:connector-curvature="0" />
    </g>
    <g
       id="text1050"
       style="font-style:normal;font-variant:normal;font-weight:200;font-stretch:normal;font-size:18.66666603px;line-height:25px;font-family:'Sinkin Sans';-inkscape-font-specification:'Sinkin Sans, Ultra-Light';font-variant-ligatures:normal;font-variant-caps:normal;font-variant-numeric:normal;text-align:start;letter-spacing:0px;word-spacing:0px;writing-mode:lr-tb;text-anchor:start;fill:#e0e0e0;fill-opacity:1;stroke:none;stroke-width:1px;stroke-linecap:butt;stroke-linejoin:miter;stroke-opacity:1"
       aria-label="6">
      <path
         id="path2010"
         style="font-style:normal;font-variant:normal;font-weight:normal;font-stretch:normal;font-size:53.33333206px;font-family:'Aprikas Light Demo';-inkscape-font-specification:'Aprikas Light Demo';fill:#e0e0e0;fill-opacity:1"
         d="m 204.36219,510.47506 q 3.41146,0 5.85937,2.26562 2.21354,2.08334 3.25521,5.625 0.75521,2.5 0.75521,5.26042 0,2.78646 -0.75521,5.28646 -1.04167,3.54166 -3.25521,5.625 -2.44791,2.26562 -5.85937,2.26562 -3.41146,0 -5.85938,-2.26562 -2.21354,-2.08334 -3.25521,-5.625 -0.7552,-2.5 -0.7552,-5.28646 v -0.026 q -0.20834,-5.05209 1.43229,-10.70313 3.125,-10.78125 11.77083,-15.88541 l 2.29167,-1.35417 0.85937,1.45833 -2.29166,1.32813 q -8.38542,4.97396 -11.22396,15.625 2.70833,-3.59375 7.03125,-3.59375 z m 7.5,8.35937 q -0.88542,-2.99479 -2.70834,-4.76562 -2.0052,-1.92709 -4.79166,-1.92709 -2.78646,0 -4.79167,1.92709 -1.82292,1.77083 -2.70833,4.76562 -0.67709,2.26563 -0.67709,4.79167 0,2.55208 0.67709,4.81771 0.88541,2.99479 2.70833,4.73958 2.00521,1.95313 4.79167,1.95313 2.78646,0 4.79166,-1.95313 1.82292,-1.74479 2.70834,-4.73958 0.67708,-2.26563 0.67708,-4.81771 0,-2.52604 -0.67708,-4.79167 z"
         inkscape:connector-curvature="0" />
    </g>
    <g
       id="text1054"
       style="font-style:normal;font-variant:normal;font-weight:200;font-stretch:normal;font-size:18.66666603px;line-height:25px;font-family:'Sinkin Sans';-inkscape-font-specification:'Sinkin Sans, Ultra-Light';font-variant-ligatures:normal;font-variant-caps:normal;font-variant-numeric:normal;text-align:start;letter-spacing:0px;word-spacing:0px;writing-mode:lr-tb;text-anchor:start;fill:#e0e0e0;fill-opacity:1;stroke:none;stroke-width:1px;stroke-linecap:butt;stroke-linejoin:miter;stroke-opacity:1"
       aria-label="7">
      <path
         id="path2007"
         style="font-style:normal;font-variant:normal;font-weight:normal;font-stretch:normal;font-size:53.33333206px;font-family:'Aprikas Light Demo';-inkscape-font-specification:'Aprikas Light Demo';fill:#e0e0e0;fill-opacity:1"
         d="m 117.13166,513.67767 13.51563,-36.6927 h -19.32292 v -1.66667 h 21.74479 l -14.14062,38.35937 z"
         inkscape:connector-curvature="0" />
    </g>
    <g
       id="text1058"
       style="font-style:normal;font-variant:normal;font-weight:200;font-stretch:normal;font-size:18.66666603px;line-height:25px;font-family:'Sinkin Sans';-inkscape-font-specification:'Sinkin Sans, Ultra-Light';font-variant-ligatures:normal;font-variant-caps:normal;font-variant-numeric:normal;text-align:start;letter-spacing:0px;word-spacing:0px;writing-mode:lr-tb;text-anchor:start;fill:#e0e0e0;fill-opacity:1;stroke:none;stroke-width:1px;stroke-linecap:butt;stroke-linejoin:miter;stroke-opacity:1"
       aria-label="8">
      <path
         id="path2004"
         style="font-style:normal;font-variant:normal;font-weight:normal;font-stretch:normal;font-size:53.33333206px;font-family:'Aprikas Light Demo';-inkscape-font-specification:'Aprikas Light Demo';fill:#e0e0e0;fill-opacity:1"
         d="m 62.80996,457.95521 q 5.286459,0 7.083334,-5.39062 0.625,-1.84896 0.625,-3.9323 0,-2.05729 -0.651042,-3.93229 -0.833333,-2.5 -2.526042,-3.98437 -1.901041,-1.61459 -4.453125,-1.64063 h -0.15625 q -5.052083,0.0521 -6.848958,5.49479 -0.598958,1.84896 -0.598958,3.9323 0,2.08333 0.598958,3.95833 1.822917,5.49479 6.927083,5.49479 z m 0,-38.38542 q 3.125,0 5.338542,1.69271 2.03125,1.51042 3.020833,4.14063 0.677083,1.875 0.677083,3.93229 0,2.05729 -0.677083,3.93229 -1.328125,3.54167 -4.479166,5 3.359375,1.66667 4.791666,5.88542 0.703125,2.13541 0.703125,4.47916 0.02604,2.3698 -0.703125,4.47917 -0.989583,2.91667 -3.072916,4.63542 -2.317709,1.875 -5.598959,1.875 -3.177083,0 -5.468749,-1.92709 -2.057292,-1.74479 -3.046875,-4.71354 -0.703125,-2.10937 -0.703125,-4.47916 0,-2.34375 0.703125,-4.45313 1.354166,-4.14062 4.635416,-5.78125 -3.125,-1.45833 -4.453125,-5 -0.703125,-1.875 -0.703125,-3.93229 0,-2.05729 0.703125,-3.93229 0.963542,-2.63021 2.994792,-4.14063 2.239583,-1.69271 5.338541,-1.69271 z m 6.770834,6.40625 q -1.744792,-4.71354 -6.770834,-4.71354 -5,0 -6.770833,4.71354 -0.572916,1.58855 -0.572916,3.35938 0,1.77083 0.572916,3.33333 1.744792,4.6875 6.692708,4.71354 h 0.15625 q 4.947917,-0.026 6.692709,-4.71354 0.598958,-1.5625 0.598958,-3.33333 0,-1.77083 -0.598958,-3.35938 z"
         inkscape:connector-curvature="0" />
    </g>
    <g
       id="text1062"
       style="font-style:normal;font-variant:normal;font-weight:200;font-stretch:normal;font-size:18.66666603px;line-height:25px;font-family:'Sinkin Sans';-inkscape-font-specification:'Sinkin Sans, Ultra-Light';font-variant-ligatures:normal;font-variant-caps:normal;font-variant-numeric:normal;text-align:start;letter-spacing:0px;word-spacing:0px;writing-mode:lr-tb;text-anchor:start;fill:#e0e0e0;fill-opacity:1;stroke:none;stroke-width:1px;stroke-linecap:butt;stroke-linejoin:miter;stroke-opacity:1"
       aria-label="9">
      <path
         id="path2001"
         style="font-style:normal;font-variant:normal;font-weight:normal;font-stretch:normal;font-size:53.33333206px;font-family:'Aprikas Light Demo';-inkscape-font-specification:'Aprikas Light Demo';fill:#e0e0e0;fill-opacity:1"
         d="m 36.54219,363.8797 q -3.411458,0 -5.859375,-2.26562 -2.213541,-2.08334 -3.255208,-5.625 -0.755208,-2.5 -0.755208,-5.28646 0,-2.76042 0.755208,-5.26042 1.041667,-3.54167 3.255208,-5.625 2.447917,-2.26562 5.859375,-2.26562 3.411458,0 5.859375,2.26562 2.213542,2.08333 3.255208,5.625 0.755209,2.5 0.755209,5.26042 v 0.0521 q 0.208333,5.02604 -1.432292,10.70313 -3.125,10.80729 -11.822916,15.91145 -0.07813,0.0521 -0.911459,0.49479 l -0.807291,0.44271 -0.859375,-1.45833 1.71875,-0.91146 q 8.437499,-4.97396 11.276041,-15.65104 -2.708333,3.59375 -7.03125,3.59375 z m -7.526041,-8.35937 q 0.911458,2.99479 2.734375,4.73958 2.005208,1.95312 4.791666,1.95312 2.786458,0 4.791667,-1.95312 1.822916,-1.74479 2.708333,-4.73958 0.677083,-2.26563 0.677083,-4.81771 0,-2.52604 -0.677083,-4.79167 -0.885417,-2.99479 -2.708333,-4.73958 -2.005209,-1.95313 -4.791667,-1.95313 -2.786458,0 -4.791666,1.95313 -1.822917,1.74479 -2.734375,4.73958 -0.651042,2.26563 -0.651042,4.79167 0,2.55208 0.651042,4.81771 z"
         inkscape:connector-curvature="0" />
    </g>
    <g
       id="text1066"
       style="font-style:normal;font-variant:normal;font-weight:200;font-stretch:normal;font-size:18.66666603px;line-height:25px;font-family:'Sinkin Sans';-inkscape-font-specification:'Sinkin Sans, Ultra-Light';font-variant-ligatures:normal;font-variant-caps:normal;font-variant-numeric:normal;text-align:start;letter-spacing:0px;word-spacing:0px;writing-mode:lr-tb;text-anchor:start;fill:#e0e0e0;fill-opacity:1;stroke:none;stroke-width:1px;stroke-linecap:butt;stroke-linejoin:miter;stroke-opacity:1"
       aria-label="10">
      <path
         id="path1996"
         style="font-style:normal;font-variant:normal;font-weight:normal;font-stretch:normal;font-size:53.33333206px;font-family:'Aprikas Light Demo';-inkscape-font-specification:'Aprikas Light Demo';fill:#e0e0e0;fill-opacity:1"
         d="m 47.383878,272.19717 9.973958,-11.35416 v 39.16666 h -1.692708 v -34.71354 l -8.28125,9.42709 z"
         inkscape:connector-curvature="0" />
      <path
         id="path1998"
         style="font-style:normal;font-variant:normal;font-weight:normal;font-stretch:normal;font-size:53.33333206px;font-family:'Aprikas Light Demo';-inkscape-font-specification:'Aprikas Light Demo';fill:#e0e0e0;fill-opacity:1"
         d="m 80.300544,260.79093 q 3.567709,0 6.09375,3.48958 2.291667,3.15104 3.359375,8.54166 0.755208,3.80209 0.755208,7.9948 0,4.21875 -0.755208,8.02083 -1.067708,5.39062 -3.359375,8.54167 -2.526041,3.46354 -6.09375,3.46354 -3.541666,0 -6.067708,-3.46354 -2.291666,-3.15105 -3.359375,-8.54167 -0.755208,-3.80208 -0.755208,-8.02083 0,-4.19271 0.755208,-7.9948 1.067709,-5.39062 3.359375,-8.54166 2.526042,-3.48958 6.067708,-3.48958 z m 7.8125,12.34374 q -0.963541,-4.76562 -2.838541,-7.57812 -2.109375,-3.07292 -4.973959,-3.07292 -2.838541,0 -4.947916,3.07292 -1.901042,2.8125 -2.838542,7.57812 -0.703125,3.64584 -0.703125,7.6823 0,4.0625 0.703125,7.68229 0.9375,4.79166 2.838542,7.57812 2.109375,3.09896 4.947916,3.09896 2.864584,0 4.973959,-3.09896 1.875,-2.78646 2.838541,-7.57812 0.703125,-3.61979 0.703125,-7.68229 0,-4.03646 -0.703125,-7.6823 z"
         inkscape:connector-curvature="0" />
    </g>
    <g
       id="text1184"
       style="font-style:normal;font-variant:normal;font-weight:200;font-stretch:normal;font-size:18.66666603px;line-height:25px;font-family:'Sinkin Sans';-inkscape-font-specification:'Sinkin Sans, Ultra-Light';font-variant-ligatures:normal;font-variant-caps:normal;font-variant-numeric:normal;text-align:start;letter-spacing:0px;word-spacing:0px;writing-mode:lr-tb;text-anchor:start;fill:#e0e0e0;fill-opacity:1;stroke:none;stroke-width:1px;stroke-linecap:butt;stroke-linejoin:miter;stroke-opacity:1"
       aria-label="11">
      <path
         id="path1991"
         style="font-style:normal;font-variant:normal;font-weight:normal;font-stretch:normal;font-size:53.33333206px;font-family:'Aprikas Light Demo';-inkscape-font-specification:'Aprikas Light Demo';fill:#e0e0e0;fill-opacity:1"
         d="m 109.42333,212.26076 9.97396,-11.35417 v 39.16667 h -1.69271 v -34.71354 l -8.28125,9.42708 z"
         inkscape:connector-curvature="0" />
      <path
         id="path1993"
         style="font-style:normal;font-variant:normal;font-weight:normal;font-stretch:normal;font-size:53.33333206px;font-family:'Aprikas Light Demo';-inkscape-font-specification:'Aprikas Light Demo';fill:#e0e0e0;fill-opacity:1"
         d="m 129.73583,212.26076 9.97396,-11.35417 v 39.16667 h -1.69271 v -34.71354 l -8.28125,9.42708 z"
         inkscape:connector-curvature="0" />
    </g>
  </g>
</svg>
